<svg width="47" height="46" viewBox="0 0 47 46" fill="none" xmlns="http://www.w3.org/2000/svg">
<g clip-path="url(#clip0_55_406)">
<path d="M23.1667 3.83337C18.0834 3.83337 13.2082 5.85271 9.61379 9.44716C6.01934 13.0416 4 17.9167 4 23C4 28.0834 6.01934 32.9585 9.61379 36.5529C13.2082 40.1474 18.0834 42.1667 23.1667 42.1667C28.25 42.1667 33.1251 40.1474 36.7196 36.5529C40.314 32.9585 42.3333 28.0834 42.3333 23C42.3333 17.9167 40.314 13.0416 36.7196 9.44716C33.1251 5.85271 28.25 3.83337 23.1667 3.83337ZM13.5833 13.4167H32.75C33.095 13.4183 33.4216 13.4886 33.7299 13.6275L23.1667 25.9493L12.6034 13.6275C12.9116 13.489 13.2455 13.4171 13.5833 13.4167ZM11.1875 30.1875V15.8125L11.1923 15.6616L18.2169 23.8577L11.269 30.8057C11.215 30.6041 11.1876 30.3963 11.1875 30.1875ZM32.75 32.5834H13.5833C13.3709 32.5834 13.1649 32.5562 12.9652 32.5019L19.7838 25.6834L23.1691 29.6317L26.5544 25.6834L33.3729 32.5019C33.1713 32.5559 32.9635 32.5833 32.7548 32.5834H32.75ZM35.1458 30.1875C35.1458 30.4 35.1187 30.606 35.0644 30.8057L28.1165 23.8577L35.141 15.6616L35.1458 15.8125V30.1875Z" fill="#F8F9FE"/>
</g>
<defs>
<clipPath id="clip0_55_406">
<rect width="38.3333" height="38.3333" fill="white" transform="translate(4 3.83337)"/>
</clipPath>
</defs>
</svg>
