<svg width="25" height="24" viewBox="0 0 25 24" fill="none" xmlns="http://www.w3.org/2000/svg">
<g clip-path="url(#clip0_25_16620)">
<path d="M12.5 2C9.84784 2 7.3043 3.05357 5.42893 4.92893C3.55357 6.8043 2.5 9.34784 2.5 12C2.5 14.6522 3.55357 17.1957 5.42893 19.0711C7.3043 20.9464 9.84784 22 12.5 22C15.1522 22 17.6957 20.9464 19.5711 19.0711C21.4464 17.1957 22.5 14.6522 22.5 12C22.5 9.34784 21.4464 6.8043 19.5711 4.92893C17.6957 3.05357 15.1522 2 12.5 2ZM7.5 7H17.5C17.68 7.00083 17.8504 7.0375 18.0113 7.11L12.5 13.5387L6.98875 7.11C7.14951 7.0377 7.32373 7.00021 7.5 7ZM6.25 15.75V8.25L6.2525 8.17125L9.9175 12.4475L6.2925 16.0725C6.26435 15.9673 6.25006 15.8589 6.25 15.75ZM17.5 17H7.5C7.38917 17 7.28167 16.9858 7.1775 16.9575L10.735 13.4L12.5013 15.46L14.2675 13.4L17.825 16.9575C17.7198 16.9857 17.6114 16.9999 17.5025 17H17.5ZM18.75 15.75C18.75 15.8608 18.7358 15.9683 18.7075 16.0725L15.0825 12.4475L18.7475 8.17125L18.75 8.25V15.75Z" fill="#71727A"/>
</g>
<defs>
<clipPath id="clip0_25_16620">
<rect width="20" height="20" fill="white" transform="translate(2.5 2)"/>
</clipPath>
</defs>
</svg>
