<svg width="25" height="24" viewBox="0 0 25 24" fill="none" xmlns="http://www.w3.org/2000/svg">
<path d="M14.11 12.243C14.104 12.5598 14.004 12.8677 13.8228 13.1276C13.6416 13.3875 13.3873 13.5878 13.0921 13.703C12.797 13.8182 12.4743 13.8432 12.1649 13.7748C11.8555 13.7064 11.5734 13.5477 11.3544 13.3188C11.1353 13.0899 10.9891 12.8011 10.9344 12.4891C10.8796 12.177 10.9187 11.8557 11.0468 11.5659C11.1749 11.2761 11.3861 11.0308 11.6537 10.8612C11.9213 10.6915 12.2332 10.6052 12.55 10.613C12.9709 10.6286 13.3692 10.8075 13.6604 11.1118C13.9516 11.4161 14.1129 11.8219 14.11 12.243Z" fill="#71727A"/>
<path d="M15.263 7.23291H9.83803C9.30123 7.23291 8.78642 7.44615 8.40684 7.82573C8.02727 8.2053 7.81403 8.72011 7.81403 9.25691V14.8039C7.81403 15.0697 7.86638 15.3329 7.96809 15.5785C8.06981 15.824 8.2189 16.0471 8.40684 16.2351C8.59479 16.423 8.81791 16.5721 9.06347 16.6738C9.30904 16.7756 9.57223 16.8279 9.83803 16.8279H15.263C15.5288 16.8279 15.792 16.7756 16.0376 16.6738C16.2831 16.5721 16.5063 16.423 16.6942 16.2351C16.8822 16.0471 17.0312 15.824 17.133 15.5785C17.2347 15.3329 17.287 15.0697 17.287 14.8039V9.26691C17.2881 9.00035 17.2365 8.7362 17.1353 8.4896C17.0341 8.243 16.8852 8.0188 16.6972 7.82985C16.5091 7.64089 16.2857 7.4909 16.0396 7.38847C15.7935 7.28603 15.5296 7.23317 15.263 7.23291ZM12.55 14.9559C12.013 14.968 11.4845 14.8199 11.0321 14.5303C10.5796 14.2408 10.2237 13.823 10.0097 13.3303C9.79575 12.8376 9.73344 12.2923 9.83074 11.764C9.92805 11.2357 10.1806 10.7484 10.556 10.3642C10.9315 9.98008 11.4129 9.71652 11.9389 9.60718C12.4648 9.49785 13.0114 9.54769 13.5088 9.75036C14.0063 9.95303 14.4321 10.2993 14.7319 10.7451C15.0317 11.1908 15.1919 11.7157 15.192 12.2529C15.1964 12.604 15.1315 12.9524 15.001 13.2784C14.8705 13.6043 14.677 13.9013 14.4316 14.1524C14.1862 14.4034 13.8937 14.6036 13.5708 14.7415C13.248 14.8794 12.9011 14.9523 12.55 14.9559ZM15.486 9.55091C15.42 9.55092 15.3547 9.53777 15.2939 9.51222C15.233 9.48667 15.1779 9.44924 15.1317 9.40212C15.0855 9.355 15.0492 9.29913 15.0249 9.23779C15.0005 9.17646 14.9887 9.11088 14.99 9.04491C14.99 8.91071 15.0433 8.78201 15.1382 8.68711C15.2331 8.59222 15.3618 8.53891 15.496 8.53891C15.6302 8.53891 15.7589 8.59222 15.8538 8.68711C15.9487 8.78201 16.002 8.91071 16.002 9.04491C16.004 9.11635 15.9905 9.18737 15.9625 9.25311C15.9345 9.31886 15.8926 9.37778 15.8397 9.42583C15.7868 9.47388 15.7242 9.50994 15.6561 9.53153C15.5879 9.55311 15.5159 9.55973 15.445 9.55091H15.486Z" fill="#71727A"/>
<path d="M12.55 1.99988C9.89784 1.98662 7.34903 3.02747 5.46429 4.89346C3.57955 6.75944 2.51326 9.29772 2.5 11.9499C2.48674 14.602 3.52759 17.1509 5.39358 19.0356C7.25957 20.9203 9.79784 21.9866 12.45 21.9999C13.7632 22.0064 15.0649 21.7543 16.2806 21.2578C17.4964 20.7613 18.6025 20.0302 19.5357 19.1063C20.4689 18.1824 21.2111 17.0837 21.7197 15.8729C22.2283 14.6622 22.4934 13.3631 22.5 12.0499C22.5066 10.7367 22.2544 9.43501 21.7579 8.21924C21.2615 7.00347 20.5304 5.8974 19.6064 4.96417C18.6825 4.03094 17.5838 3.28883 16.373 2.78022C15.1623 2.27161 13.8632 2.00645 12.55 1.99988ZM18.623 14.7019C18.6258 15.1505 18.5395 15.5952 18.3691 16.0103C18.1988 16.4253 17.9477 16.8024 17.6305 17.1197C17.3133 17.437 16.9363 17.6881 16.5213 17.8586C16.1063 18.0291 15.6616 18.1155 15.213 18.1129H9.889C9.44037 18.1157 8.99565 18.0294 8.58061 17.859C8.16558 17.6886 7.78849 17.4376 7.4712 17.1204C7.15392 16.8032 6.90275 16.4262 6.73226 16.0112C6.56177 15.5962 6.47535 15.1515 6.478 14.7029V9.37788C6.47522 8.92925 6.56151 8.48452 6.73188 8.06949C6.90225 7.65445 7.1533 7.27737 7.47049 6.96008C7.78769 6.6428 8.1647 6.39163 8.57969 6.22114C8.99467 6.05065 9.43937 5.96423 9.888 5.96688H15.213C15.6616 5.96423 16.1062 6.05062 16.5211 6.22105C16.936 6.39147 17.313 6.64255 17.6302 6.95973C17.9473 7.27691 18.1984 7.65388 18.3688 8.0688C18.5393 8.48372 18.6257 8.92833 18.623 9.37688V14.7019Z" fill="#71727A"/>
</svg>
