<svg width="46" height="46" viewBox="0 0 46 46" fill="none" xmlns="http://www.w3.org/2000/svg">
<path d="M26.0858 23.4657C26.0742 24.0729 25.8826 24.663 25.5353 25.1612C25.188 25.6593 24.7006 26.0431 24.1349 26.264C23.5692 26.4848 22.9507 26.5328 22.3577 26.4017C21.7647 26.2706 21.2241 25.9664 20.8042 25.5277C20.3843 25.0889 20.1041 24.5354 19.9991 23.9373C19.8942 23.3391 19.9692 22.7233 20.2147 22.1678C20.4601 21.6124 20.8649 21.1423 21.3779 20.8171C21.8908 20.492 22.4887 20.3265 23.0958 20.3416C23.9025 20.3715 24.6659 20.7144 25.2241 21.2976C25.7822 21.8808 26.0913 22.6585 26.0858 23.4657Z" fill="#F8F9FE"/>
<path d="M28.2958 13.8632H17.8979C16.869 13.8632 15.8823 14.2719 15.1548 14.9995C14.4273 15.727 14.0186 16.7137 14.0186 17.7426V28.3743C14.0186 28.8837 14.1189 29.3882 14.3139 29.8589C14.5088 30.3295 14.7946 30.7572 15.1548 31.1174C15.515 31.4776 15.9427 31.7634 16.4133 31.9583C16.884 32.1533 17.3884 32.2536 17.8979 32.2536H28.2958C28.8052 32.2536 29.3097 32.1533 29.7804 31.9583C30.251 31.7634 30.6787 31.4776 31.0389 31.1174C31.3991 30.7572 31.6849 30.3295 31.8798 29.8589C32.0748 29.3882 32.1751 28.8837 32.1751 28.3743V17.7617C32.1772 17.2508 32.0783 16.7445 31.8843 16.2719C31.6903 15.7992 31.405 15.3695 31.0446 15.0073C30.6842 14.6452 30.2559 14.3577 29.7842 14.1614C29.3125 13.965 28.8067 13.8637 28.2958 13.8632ZM23.0959 28.6656C22.0666 28.6889 21.0537 28.4049 20.1865 27.8499C19.3193 27.295 18.6371 26.4942 18.227 25.5498C17.8169 24.6055 17.6974 23.5603 17.8839 22.5478C18.0704 21.5352 18.5544 20.6012 19.2741 19.8649C19.9937 19.1286 20.9165 18.6235 21.9245 18.4139C22.9325 18.2043 23.9801 18.2999 24.9336 18.6883C25.8871 19.0768 26.7032 19.7405 27.2778 20.5948C27.8524 21.4492 28.1595 22.4553 28.1597 23.4849C28.1681 24.1577 28.0436 24.8256 27.7936 25.4503C27.5435 26.075 27.1726 26.6443 26.7023 27.1255C26.2319 27.6067 25.6713 27.9904 25.0525 28.2547C24.4336 28.519 23.7688 28.6586 23.0959 28.6656ZM28.7232 18.3061C28.5967 18.3061 28.4715 18.2809 28.3549 18.2319C28.2383 18.1829 28.1327 18.1112 28.0441 18.0209C27.9556 17.9306 27.886 17.8235 27.8393 17.7059C27.7927 17.5884 27.77 17.4627 27.7726 17.3362C27.7726 17.079 27.8747 16.8323 28.0566 16.6504C28.2385 16.4686 28.4852 16.3664 28.7424 16.3664C28.9996 16.3664 29.2463 16.4686 29.4282 16.6504C29.61 16.8323 29.7122 17.079 29.7122 17.3362C29.716 17.4731 29.6902 17.6093 29.6365 17.7353C29.5828 17.8613 29.5025 17.9742 29.4012 18.0663C29.2998 18.1584 29.1797 18.2275 29.0491 18.2689C28.9185 18.3103 28.7806 18.323 28.6446 18.3061H28.7232Z" fill="#F8F9FE"/>
<path d="M23.0959 3.83331C18.0126 3.80789 13.1273 5.80286 9.51492 9.37933C5.9025 12.9558 3.85879 17.8208 3.83337 22.9041C3.80795 27.9875 5.80292 32.8727 9.37939 36.4851C12.9559 40.0975 17.8209 42.1412 22.9042 42.1666C25.4212 42.1792 27.916 41.6959 30.2463 40.7443C32.5765 39.7928 34.6965 38.3915 36.4852 36.6206C38.2738 34.8497 39.6962 32.7439 40.6711 30.4233C41.6459 28.1027 42.1541 25.6128 42.1667 23.0958C42.1793 20.5788 41.696 18.084 40.7444 15.7537C39.7928 13.4235 38.3916 11.3035 36.6207 9.51486C34.8498 7.72617 32.7439 6.3038 30.4233 5.32896C28.1028 4.35412 25.6129 3.84589 23.0959 3.83331ZM34.7358 28.1788C34.7411 29.0387 34.5757 29.8911 34.2492 30.6866C33.9227 31.482 33.4415 32.2048 32.8335 32.8129C32.2256 33.4211 31.5029 33.9025 30.7076 34.2292C29.9122 34.556 29.0598 34.7217 28.2 34.7166H17.9956C17.1357 34.7219 16.2834 34.5565 15.4879 34.23C14.6924 33.9034 13.9696 33.4222 13.3615 32.8143C12.7534 32.2063 12.272 31.4837 11.9452 30.6883C11.6184 29.8929 11.4528 29.0406 11.4579 28.1807V17.9745C11.4525 17.1146 11.6179 16.2622 11.9445 15.4667C12.271 14.6712 12.7522 13.9485 13.3601 13.3404C13.9681 12.7322 14.6907 12.2508 15.4861 11.9241C16.2815 11.5973 17.1338 11.4316 17.9937 11.4367H28.2C29.0597 11.4316 29.9119 11.5972 30.7071 11.9239C31.5024 12.2505 32.2249 12.7318 32.8328 13.3397C33.4408 13.9476 33.922 14.6701 34.2486 15.4654C34.5753 16.2607 34.7409 17.1128 34.7358 17.9726V28.1788Z" fill="#F8F9FE"/>
</svg>
